<?xml version="1.0" standalone="no"?>
<!DOCTYPE svg PUBLIC "-//W3C//DTD SVG 20010904//EN"
 "http://www.w3.org/TR/2001/REC-SVG-20010904/DTD/svg10.dtd">
<svg version="1.0" xmlns="http://www.w3.org/2000/svg"
 width="512.000000pt" height="512.000000pt" viewBox="0 0 512.000000 512.000000"
 preserveAspectRatio="xMidYMid meet">
<metadata>
Created by potrace 1.14, written by Peter Selinger 2001-2017
</metadata>
<g transform="translate(0.000000,512.000000) scale(0.100000,-0.100000)"
fill="#000000" stroke="none">
<path d="M2513 5064 c8 -13 -16 -37 -26 -27 -4 3 -7 1 -7 -6 0 -7 -4 -9 -10
-6 -5 3 -10 -1 -10 -9 0 -10 -7 -13 -20 -11 -11 2 -18 0 -15 -5 3 -5 -13 -16
-35 -26 -22 -10 -40 -22 -40 -27 0 -4 -4 -5 -10 -2 -5 3 -10 1 -10 -4 0 -6 -7
-11 -16 -11 -9 0 -24 -8 -33 -17 -9 -10 -23 -19 -31 -21 -8 -2 -16 -7 -18 -12
-2 -5 -10 -6 -19 -3 -11 4 -14 2 -9 -5 4 -7 -3 -14 -19 -18 -14 -3 -25 -10
-25 -16 0 -5 -5 -6 -10 -3 -6 3 -13 -1 -16 -10 -4 -9 -12 -14 -19 -11 -8 3
-16 -2 -19 -10 -3 -9 -10 -12 -16 -9 -5 3 -10 1 -10 -5 0 -6 -4 -9 -9 -6 -5 3
-11 -1 -15 -9 -3 -9 -12 -12 -22 -8 -11 4 -15 3 -10 -5 4 -6 -8 -16 -29 -23
-19 -7 -35 -17 -35 -21 0 -4 -9 -8 -21 -8 -11 0 -17 -4 -14 -10 3 -5 -3 -10
-14 -10 -12 0 -21 -5 -21 -11 0 -5 -4 -8 -9 -5 -5 3 -12 -1 -15 -10 -3 -8 -10
-13 -15 -10 -5 3 -12 -1 -15 -10 -3 -8 -10 -13 -16 -9 -5 3 -18 -3 -30 -15
-11 -11 -20 -17 -20 -14 0 4 -6 1 -13 -5 -8 -6 -17 -8 -20 -4 -4 3 -7 1 -7 -5
0 -7 -5 -12 -11 -12 -6 0 -17 -7 -26 -15 -8 -8 -19 -12 -25 -9 -6 4 -8 3 -5
-2 3 -6 -3 -16 -15 -23 -11 -7 -17 -8 -14 -2 4 6 -8 1 -27 -12 -19 -12 -32
-26 -29 -31 3 -5 0 -6 -7 -2 -6 4 -24 -2 -40 -13 -16 -12 -34 -21 -40 -21 -6
0 -11 -3 -11 -8 0 -4 -15 -14 -32 -21 -18 -8 -39 -21 -46 -28 -8 -7 -18 -11
-23 -8 -5 4 -9 1 -9 -4 0 -6 -7 -11 -16 -11 -10 0 -14 -6 -11 -14 4 -11 -1
-13 -19 -10 -15 3 -23 1 -20 -5 4 -5 -7 -12 -24 -16 -17 -4 -28 -10 -25 -15 3
-4 -7 -11 -20 -14 -17 -4 -23 -11 -19 -19 4 -7 4 -9 -1 -5 -9 9 -85 -29 -103
-51 -10 -12 -12 -12 -6 -1 7 13 6 13 -12 0 -10 -8 -25 -22 -32 -30 -12 -13
-13 -13 -6 0 6 11 2 10 -13 -3 -11 -9 -23 -14 -26 -10 -4 3 -7 -1 -7 -11 0 -9
-5 -14 -10 -11 -6 3 -17 -1 -26 -9 -8 -9 -22 -16 -30 -16 -8 0 -14 -5 -14 -11
0 -5 -5 -7 -10 -4 -6 3 -13 -1 -16 -10 -4 -9 -12 -14 -19 -11 -8 3 -16 -2 -19
-10 -3 -9 -10 -13 -15 -10 -5 3 -12 -1 -15 -10 -4 -9 -9 -14 -13 -11 -9 9 -44
-13 -38 -23 3 -6 -1 -7 -9 -4 -9 3 -16 1 -16 -6 0 -6 -4 -8 -10 -5 -5 3 -10 1
-10 -4 0 -6 -7 -11 -15 -11 -7 0 -19 -8 -24 -17 -8 -14 -11 -15 -11 -3 0 12
-3 11 -11 -3 -6 -9 -14 -15 -20 -12 -5 4 -9 1 -9 -5 0 -6 -4 -9 -9 -6 -5 3
-11 -1 -15 -9 -3 -8 -11 -15 -17 -15 -7 0 -21 -8 -32 -17 -15 -13 -18 -14 -12
-3 4 8 -2 5 -14 -8 -20 -21 -69 -46 -80 -42 -2 1 -9 -6 -14 -15 -8 -14 -11
-15 -18 -4 -7 11 -9 10 -9 -3 0 -17 -10 -22 -37 -19 -10 1 -13 -266 -13 -1264
0 -742 4 -1264 9 -1261 5 3 14 -1 21 -9 7 -8 22 -15 34 -15 17 0 18 -2 6 -10
-13 -8 -13 -10 1 -10 24 0 70 -26 62 -34 -4 -4 0 -4 10 0 10 3 17 1 17 -5 0
-6 6 -10 13 -8 6 1 11 -4 10 -10 -2 -7 0 -12 5 -11 14 4 52 -13 52 -23 0 -6 4
-7 10 -4 5 3 10 1 10 -5 0 -6 4 -8 10 -5 5 3 10 1 10 -5 0 -6 5 -8 10 -5 5 3
10 2 10 -2 0 -8 29 -26 63 -39 9 -3 17 -11 17 -16 0 -5 4 -6 10 -3 5 3 10 1
10 -5 0 -6 4 -8 10 -5 5 3 10 1 10 -4 0 -6 9 -11 21 -11 11 0 18 -4 15 -8 -3
-5 10 -15 29 -22 19 -8 35 -18 35 -23 0 -5 7 -6 16 -3 8 3 13 2 10 -2 -3 -5
13 -16 34 -26 22 -10 40 -22 40 -27 0 -6 4 -8 9 -4 5 3 12 1 16 -5 4 -6 11 -7
17 -4 7 4 8 2 4 -4 -4 -7 -1 -12 9 -12 9 0 14 -4 11 -8 -2 -4 5 -9 17 -9 12
-1 23 -7 25 -13 2 -5 13 -10 23 -10 11 0 17 -5 14 -10 -3 -6 1 -10 9 -10 9 0
16 -6 16 -12 0 -10 2 -10 9 0 7 11 9 10 15 -3 3 -9 10 -14 15 -11 5 3 12 -1
15 -10 3 -8 10 -12 16 -9 5 3 10 1 10 -4 0 -6 7 -11 15 -11 8 0 15 -5 15 -11
0 -5 4 -8 9 -5 5 3 11 -1 15 -9 3 -8 15 -15 26 -15 11 0 20 -5 20 -11 0 -5 4
-8 9 -5 5 3 14 -1 21 -9 7 -8 22 -15 33 -15 11 0 17 -3 14 -7 -9 -9 72 -55 84
-47 5 3 9 -2 9 -11 0 -11 5 -15 16 -11 8 3 12 2 9 -4 -6 -9 8 -14 28 -11 4 0
7 -4 7 -10 0 -5 5 -7 10 -4 6 3 10 1 10 -4 0 -6 7 -11 16 -11 8 0 12 -4 9 -10
-3 -5 3 -10 14 -10 12 0 21 -5 21 -11 0 -5 4 -7 10 -4 5 3 10 1 10 -5 0 -6 4
-9 9 -6 5 4 11 2 13 -3 1 -5 10 -11 18 -13 8 -2 21 -9 28 -16 8 -7 18 -10 23
-6 5 3 8 0 7 -8 -2 -8 4 -12 16 -10 11 2 15 -1 11 -7 -3 -6 2 -11 13 -11 11 0
23 -7 26 -16 3 -8 10 -12 16 -9 5 3 10 1 10 -5 0 -7 7 -9 16 -6 8 3 13 2 10
-3 -5 -8 42 -36 57 -33 4 1 7 -3 7 -9 0 -5 4 -8 8 -5 5 3 14 -4 22 -14 8 -10
17 -17 21 -14 4 2 13 -2 21 -9 7 -8 21 -13 31 -11 9 1 15 -2 12 -6 -3 -5 13
-17 35 -28 22 -10 37 -21 34 -25 -4 -4 5 -7 20 -7 16 0 25 -4 21 -10 -6 -9 8
-14 28 -11 4 0 7 -4 7 -9 0 -6 7 -10 16 -10 8 0 12 -5 9 -10 -5 -9 24 -15 48
-11 5 1 6 -3 2 -9 -3 -5 1 -10 9 -10 9 0 16 -4 16 -10 0 -5 7 -10 15 -10 9 0
25 -9 37 -20 12 -11 30 -20 40 -20 11 0 16 -5 13 -10 -4 -6 8 -13 25 -17 18
-3 34 -12 37 -19 3 -8 9 -11 14 -8 5 3 9 0 9 -5 0 -16 86 -13 99 2 6 8 7 17 3
21 -4 4 -2 6 3 5 15 -4 55 11 55 22 0 5 9 9 20 9 11 0 23 7 26 15 4 8 10 13
14 10 5 -3 19 5 31 17 12 13 18 16 13 8 -4 -8 5 -5 20 8 16 12 35 22 43 22 8
0 11 5 8 10 -3 6 3 10 15 10 11 0 28 9 37 19 9 11 20 18 24 16 4 -3 12 2 19
10 7 8 17 15 22 15 6 0 23 9 39 21 16 11 29 18 29 14 0 -3 10 4 22 15 12 11
28 18 36 15 7 -2 10 0 7 5 -3 6 1 10 10 10 9 0 13 4 10 10 -3 6 1 7 9 4 9 -3
16 -1 16 5 0 6 7 11 16 11 9 0 12 5 8 12 -5 7 -3 8 5 4 7 -5 19 0 27 10 9 11
13 13 9 4 -5 -12 -4 -12 7 1 7 9 19 14 27 11 8 -3 11 0 7 6 -7 11 21 25 35 16
5 -3 9 2 9 11 0 9 4 14 9 10 6 -3 14 3 20 12 6 11 11 13 11 5 0 -7 5 -10 12
-6 7 5 8 3 4 -5 -5 -7 -10 -27 -13 -44 -3 -18 -8 -33 -12 -35 -4 -1 -6 -15 -3
-31 2 -19 20 -40 53 -67 27 -21 49 -42 49 -47 0 -4 5 -5 10 -2 6 3 10 1 10 -4
0 -6 9 -11 20 -11 11 0 20 5 20 11 0 5 4 8 8 5 5 -3 19 1 33 8 13 7 30 11 36
9 6 -2 14 1 18 6 3 6 15 11 26 11 17 0 25 21 20 53 0 4 3 7 8 7 6 0 8 9 6 20
-2 11 -1 20 3 20 4 0 7 20 7 44 0 36 -5 48 -34 75 -18 17 -35 31 -38 31 -2 0
-15 11 -29 25 -14 14 -30 23 -35 20 -5 -4 -9 -1 -9 4 0 6 7 11 16 11 9 0 25
11 36 25 14 18 24 23 32 16 7 -6 21 0 40 20 17 16 35 28 41 26 13 -5 36 18 27
27 -3 4 2 4 12 0 15 -6 17 -4 11 6 -5 8 -4 11 3 6 10 -6 109 48 123 68 4 5 11
6 17 2 5 -3 13 1 16 10 3 8 10 12 16 9 5 -3 10 1 10 9 0 10 6 13 15 10 8 -4
15 -1 15 6 0 6 4 9 9 5 5 -3 16 4 24 15 7 11 17 17 21 13 3 -4 13 2 22 13 8
10 12 12 8 4 -4 -8 4 -5 18 8 13 12 28 19 31 15 4 -3 7 -1 7 6 0 7 5 9 12 5 7
-5 9 -2 5 9 -4 11 -2 14 8 11 8 -3 34 8 59 26 26 17 46 28 46 24 0 -4 7 1 16
12 8 10 13 12 9 4 -4 -10 -2 -9 8 2 8 10 17 15 20 11 4 -3 7 -2 7 4 0 5 18 18
40 28 22 10 37 22 33 28 -3 6 -1 7 5 3 14 -8 85 38 75 48 -4 4 1 4 10 0 11 -4
25 0 36 10 10 9 21 13 25 9 4 -5 6 -2 4 6 -2 7 6 15 17 17 11 1 21 8 23 14 2
5 8 8 13 4 5 -3 9 0 9 5 0 6 3 10 8 9 14 -3 42 14 36 23 -3 5 -2 9 3 8 18 -3
34 1 29 9 -2 4 5 9 16 9 12 1 24 7 28 14 5 6 13 8 20 4 9 -5 11 -4 6 3 -4 7
-3 12 1 12 5 0 18 6 28 14 16 12 17 16 6 30 -11 13 -11 17 3 22 9 3 16 10 16
16 0 5 -4 7 -9 3 -5 -3 -12 -1 -16 5 -3 5 2 10 12 10 15 0 16 2 3 10 -8 5 -10
10 -5 10 6 0 3 4 -5 10 -12 7 -12 12 4 29 18 19 18 21 2 27 -13 5 -15 9 -5 15
15 9 22 169 9 204 -6 15 -6 27 0 30 6 4 10 11 10 16 0 6 -4 7 -10 4 -5 -3 -10
-1 -10 4 0 6 5 11 11 11 8 0 7 6 -2 17 -10 11 -10 14 -1 9 15 -9 16 6 0 22 -9
9 -9 12 3 12 10 1 8 5 -6 17 -16 13 -17 15 -2 10 20 -7 22 4 5 21 -7 7 -8 12
-2 12 6 0 11 7 11 15 0 8 -4 12 -9 9 -4 -3 -8 0 -8 5 0 6 5 11 11 11 8 0 7 6
-2 17 -10 11 -10 14 -1 9 15 -9 16 6 0 22 -9 9 -9 12 3 12 10 1 8 5 -6 17 -16
13 -17 15 -2 10 20 -7 22 4 5 21 -9 9 -9 12 1 12 7 0 9 5 5 12 -11 17 -12 48
-2 42 11 -7 10 3 -3 28 -8 15 -8 19 0 14 6 -4 11 -3 11 3 0 5 -6 12 -12 14
-10 4 -9 6 1 6 11 1 11 4 0 18 -10 11 -10 14 -1 9 15 -9 16 6 0 22 -9 9 -9 12
2 12 9 0 8 6 -6 22 -15 19 -16 20 -1 9 19 -15 24 -2 5 17 -9 9 -9 12 1 12 7 0
9 5 5 12 -11 17 -12 48 -2 42 11 -7 10 3 -3 28 -8 15 -8 19 0 14 6 -4 11 -3
11 3 0 5 -6 12 -12 14 -10 4 -9 6 1 6 11 1 11 4 0 18 -10 11 -10 14 -1 9 15
-9 16 6 0 22 -9 9 -9 12 1 12 11 0 11 3 0 17 -12 14 -12 16 0 9 9 -6 12 -5 9
5 -3 8 -12 13 -19 11 -9 -1 -8 2 3 11 14 11 15 16 5 27 -9 10 -9 11 1 6 13 -8
17 6 5 18 -10 10 -11 46 -1 40 13 -8 6 29 -7 38 -6 5 -6 8 1 8 16 0 17 519 1
539 -8 10 -8 13 -1 8 9 -5 12 75 13 303 1 273 -1 310 -14 310 -9 0 -18 7 -21
15 -4 8 -10 12 -15 9 -5 -3 -9 0 -9 6 0 6 -4 9 -8 6 -5 -3 -18 4 -30 14 -12
11 -28 20 -37 20 -8 0 -15 4 -15 9 0 5 -13 14 -30 21 -16 7 -30 17 -30 22 0 5
-4 7 -9 3 -5 -3 -16 2 -25 11 -9 8 -21 12 -27 8 -8 -4 -9 -3 -5 4 4 7 1 12 -9
12 -9 0 -13 4 -10 10 4 6 -1 7 -11 3 -11 -4 -15 -3 -10 5 4 7 -1 10 -14 7 -13
-2 -20 1 -20 11 0 8 -9 14 -20 14 -11 0 -20 4 -20 8 0 5 -16 14 -35 22 -19 8
-35 17 -35 22 0 4 -6 8 -14 8 -8 0 -16 5 -18 10 -2 6 -13 12 -25 13 -12 0 -19
5 -17 9 5 7 -10 11 -21 6 -2 -2 -11 6 -19 17 -9 11 -16 16 -16 11 0 -5 -8 0
-17 11 -10 11 -24 18 -30 16 -7 -3 -13 0 -13 5 0 10 -40 28 -49 23 -2 -2 -8 4
-13 13 -5 9 -13 14 -19 11 -5 -4 -9 -1 -9 4 0 6 -7 11 -15 11 -8 0 -15 5 -15
10 0 6 -6 10 -14 10 -8 0 -16 7 -20 15 -3 8 -11 12 -18 10 -8 -3 -24 4 -36 16
-13 11 -30 18 -38 15 -9 -3 -12 -2 -9 5 4 6 -2 13 -14 16 -12 3 -21 10 -21 15
0 5 -5 6 -10 3 -6 -3 -13 1 -16 9 -3 9 -10 14 -14 11 -4 -3 -13 2 -20 10 -7 8
-21 15 -32 15 -10 0 -17 4 -14 9 3 5 -1 12 -10 15 -10 4 -13 2 -8 -6 4 -6 -8
0 -28 15 -19 15 -40 27 -46 27 -7 0 -12 5 -12 10 0 6 -7 10 -15 10 -8 0 -15 5
-15 11 0 5 -4 8 -9 5 -5 -3 -14 0 -19 7 -6 7 -27 19 -47 27 -19 7 -35 17 -35
22 0 4 -7 8 -16 8 -8 0 -13 4 -10 9 4 5 -2 7 -13 4 -11 -3 -24 3 -32 15 -8 11
-23 22 -34 24 -11 2 -19 10 -17 17 2 8 -3 11 -12 8 -8 -3 -20 1 -26 9 -7 8
-21 14 -32 14 -10 0 -21 6 -24 14 -3 9 -12 12 -21 9 -11 -4 -14 -2 -9 5 5 8 0
12 -14 12 -13 0 -19 4 -14 12 5 7 0 9 -14 6 -13 -4 -20 -2 -19 6 1 6 -5 11
-13 11 -8 0 -24 9 -35 21 -11 12 -26 19 -32 17 -7 -3 -13 1 -13 8 0 7 -3 10
-6 6 -4 -3 -15 4 -26 16 -11 12 -17 16 -13 10 10 -20 -9 -15 -25 6 -7 11 -17
18 -22 15 -4 -3 -8 -1 -8 5 0 5 -16 15 -35 21 -20 7 -32 16 -29 22 4 6 1 9 -7
6 -8 -3 -20 1 -27 9 -8 7 -18 11 -23 8 -5 -4 -9 -2 -9 3 0 5 -12 15 -27 23
-16 8 -34 20 -41 27 -8 7 -18 10 -23 7 -5 -4 -9 -1 -9 4 0 6 -7 11 -15 11 -8
0 -15 5 -15 10 0 6 -6 9 -12 8 -7 -2 -12 2 -11 9 2 7 -6 10 -16 8 -11 -2 -22
3 -25 11 -3 8 -15 14 -26 14 -12 0 -18 5 -15 10 4 6 -5 10 -19 10 -14 0 -26
-5 -26 -11 0 -8 -6 -7 -17 2 -9 8 -14 9 -10 3z m2217 -3524 c0 -5 -5 -10 -11
-10 -5 0 -7 5 -4 10 3 6 8 10 11 10 2 0 4 -4 4 -10z"/>
<path d="M4410 1030 c0 -3 -25 -4 -56 -4 -43 1 -57 -2 -61 -15 -4 -9 -14 -28
-24 -42 -10 -14 -16 -29 -12 -33 3 -3 1 -6 -5 -6 -7 0 -11 -3 -10 -7 0 -5 -2
-16 -7 -26 -11 -27 67 -163 87 -151 4 3 8 1 8 -3 0 -10 41 -10 56 0 5 3 16 2
24 -3 7 -4 23 -5 34 0 12 4 26 8 31 9 6 1 19 18 30 38 11 21 23 40 26 43 3 3
11 19 18 37 11 28 11 35 -3 48 -9 9 -16 23 -16 31 0 8 -4 14 -10 14 -5 0 -10
7 -10 15 0 8 -5 15 -11 15 -5 0 -7 5 -4 10 3 6 -1 13 -9 16 -9 3 -14 9 -12 13
2 3 -11 6 -30 6 -19 0 -34 -2 -34 -5z"/>
</g>
</svg>
